0
SECTION
2
HEADER
9
$INSUNITS
70
4
9
$ACADVER
1
AC1014
9
$HANDSEED
5
FFFF
0
ENDSEC
0
SECTION
2
TABLES
0
TABLE
2
VPORT
5
8
100
AcDbSymbolTable
0
ENDTAB
0
TABLE
2
LTYPE
5
5
100
AcDbSymbolTable
0
LTYPE
5
14
100
AcDbSymbolTableRecord
100
AcDbLinetypeTableRecord
2
BYBLOCK
70
0
0
LTYPE
5
15
100
AcDbSymbolTableRecord
100
AcDbLinetypeTableRecord
2
BYLAYER
70
0
0
ENDTAB
0
TABLE
2
LAYER
5
2
100
AcDbSymbolTable
70
2
0
LAYER
5
50
100
AcDbSymbolTableRecord
100
AcDbLayerTableRecord
2
0
70
0
6
CONTINUOUS
0
ENDTAB
0
TABLE
2
STYLE
5
3
100
AcDbSymbolTable
70
1
0
STYLE
5
11
100
AcDbSymbolTableRecord
100
AcDbTextStyleTableRecord
2
STANDARD
70
0
0
ENDTAB
0
TABLE
2
VIEW
5
6
100
AcDbSymbolTable
70
0
0
ENDTAB
0
TABLE
2
UCS
5
7
100
AcDbSymbolTable
70
0
0
ENDTAB
0
TABLE
2
APPID
5
9
100
AcDbSymbolTable
70
2
0
APPID
5
12
100
AcDbSymbolTableRecord
100
AcDbRegAppTableRecord
2
ACAD
70
0
0
ENDTAB
0
TABLE
2
DIMSTYLE
5
A
100
AcDbSymbolTable
70
1
0
ENDTAB
0
TABLE
2
BLOCK_RECORD
5
1
100
AcDbSymbolTable
70
1
0
BLOCK_RECORD
5
1F
100
AcDbSymbolTableRecord
100
AcDbBlockTableRecord
2
*MODEL_SPACE
0
BLOCK_RECORD
5
1B
100
AcDbSymbolTableRecord
100
AcDbBlockTableRecord
2
*PAPER_SPACE
0
ENDTAB
0
ENDSEC
0
SECTION
2
BLOCKS
0
BLOCK
5
20
100
AcDbEntity
100
AcDbBlockBegin
2
*MODEL_SPACE
0
ENDBLK
5
21
100
AcDbEntity
100
AcDbBlockEnd
0
BLOCK
5
1C
100
AcDbEntity
100
AcDbBlockBegin
2
*PAPER_SPACE
0
ENDBLK
5
1D
100
AcDbEntity
100
AcDbBlockEnd
0
ENDSEC
0
SECTION
2
ENTITIES
0
LWPOLYLINE
5
100
100
AcDbEntity
8
0
100
AcDbPolyline
90
4
70
1
43
0.0
10
2.525000274181366
20
-172.04999923706055
10
2.525000274181366
20
-158.05000305175781
10
16.525000333786011
20
-158.05000305175781
10
16.525000333786011
20
-172.04999923706055
0
LWPOLYLINE
5
101
100
AcDbEntity
8
0
100
AcDbPolyline
90
4
70
1
43
0.0
10
26.337499618530273
20
-172.04999923706055
10
26.337499618530273
20
-158.05000305175781
10
40.33750057220459
20
-158.05000305175781
10
40.33750057220459
20
-172.04999923706055
0
LWPOLYLINE
5
102
100
AcDbEntity
8
0
100
AcDbPolyline
90
4
70
1
43
0.0
10
126.35000228881836
20
-158.05000305175781
10
140.35000801086426
20
-158.05000305175781
10
140.35000801086426
20
-172.04999923706055
10
126.35000228881836
20
-172.04999923706055
0
LWPOLYLINE
5
103
100
AcDbEntity
8
0
100
AcDbPolyline
90
4
70
1
43
0.0
10
136.9687557220459
20
-147.40050315856934
10
121.9687557220459
20
-147.40050315856934
10
121.9687557220459
20
-139.90050315856934
10
136.9687557220459
20
-139.90050315856934
0
LWPOLYLINE
5
104
100
AcDbEntity
8
0
100
AcDbPolyline
90
4
70
1
43
0.0
10
59.675002098083496
20
-148.23750495910645
10
59.675002098083496
20
-134.23750877380371
10
73.675003051757812
20
-134.23750877380371
10
73.675003051757812
20
-148.23750495910645
0
LWPOLYLINE
5
105
100
AcDbEntity
8
0
100
AcDbPolyline
90
4
70
1
43
0.0
10
54.625000953674316
20
-148.23750495910645
10
54.625000953674316
20
-134.23750877380371
10
40.625
20
-134.23750877380371
10
40.625
20
-148.23750495910645
0
LWPOLYLINE
5
106
100
AcDbEntity
8
0
100
AcDbPolyline
90
4
70
1
43
0.0
10
78.72499942779541
20
-148.23750495910645
10
78.72499942779541
20
-134.23750877380371
10
92.725000381469727
20
-134.23750877380371
10
92.725000381469727
20
-148.23750495910645
0
LWPOLYLINE
5
107
100
AcDbEntity
8
0
100
AcDbPolyline
90
4
70
1
43
0.0
10
97.775001525878906
20
-148.23750495910645
10
97.775001525878906
20
-134.23750877380371
10
111.7750072479248
20
-134.23750877380371
10
111.7750072479248
20
-148.23750495910645
0
LWPOLYLINE
5
108
100
AcDbEntity
8
0
100
AcDbPolyline
90
4
70
1
43
0.0
10
4.9062499403953552
20
-115.1875114440918
10
18.90625
20
-115.1875114440918
10
18.90625
20
-129.18749809265137
10
4.9062499403953552
20
-129.18749809265137
0
LWPOLYLINE
5
109
100
AcDbEntity
8
0
100
AcDbPolyline
90
4
70
1
43
0.0
10
26.337499618530273
20
-129.18749809265137
10
26.337499618530273
20
-115.1875114440918
10
40.33750057220459
20
-115.1875114440918
10
40.33750057220459
20
-129.18749809265137
0
LWPOLYLINE
5
110
100
AcDbEntity
8
0
100
AcDbPolyline
90
4
70
1
43
0.0
10
173.97500991821289
20
-134.23750877380371
10
187.97500610351562
20
-134.23750877380371
10
187.97500610351562
20
-148.23750495910645
10
173.97500991821289
20
-148.23750495910645
0
LWPOLYLINE
5
111
100
AcDbEntity
8
0
100
AcDbPolyline
90
4
70
1
43
0.0
10
107.30000495910645
20
-158.05000305175781
10
121.30000114440918
20
-158.05000305175781
10
121.30000114440918
20
-172.04999923706055
10
107.30000495910645
20
-172.04999923706055
0
LWPOLYLINE
5
112
100
AcDbEntity
8
0
100
AcDbPolyline
90
4
70
1
43
0.0
10
78.437509536743164
20
-172.04999923706055
10
64.437499046325684
20
-172.04999923706055
10
64.437499046325684
20
-158.05000305175781
10
78.437509536743164
20
-158.05000305175781
0
LWPOLYLINE
5
113
100
AcDbEntity
8
0
100
AcDbPolyline
90
4
70
1
43
0.0
10
45.38750171661377
20
-129.18749809265137
10
45.38750171661377
20
-115.1875114440918
10
59.387502670288086
20
-115.1875114440918
10
59.387502670288086
20
-129.18749809265137
0
LWPOLYLINE
5
114
100
AcDbEntity
8
0
100
AcDbPolyline
90
4
70
1
43
0.0
10
64.437499046325684
20
-129.18749809265137
10
64.437499046325684
20
-115.1875114440918
10
78.437509536743164
20
-115.1875114440918
10
78.437509536743164
20
-129.18749809265137
0
LWPOLYLINE
5
115
100
AcDbEntity
8
0
100
AcDbPolyline
90
4
70
1
43
0.0
10
116.53750419616699
20
-129.18749809265137
10
116.53750419616699
20
-115.1875114440918
10
102.53749847412109
20
-115.1875114440918
10
102.53749847412109
20
-129.18749809265137
0
LWPOLYLINE
5
116
100
AcDbEntity
8
0
100
AcDbPolyline
90
4
70
1
43
0.0
10
121.9687557220459
20
-123.52450370788574
10
121.9687557220459
20
-116.02450370788574
10
136.9687557220459
20
-116.02450370788574
10
136.9687557220459
20
-123.52450370788574
0
LWPOLYLINE
5
117
100
AcDbEntity
8
0
100
AcDbPolyline
90
4
70
1
43
0.0
10
137.96875
20
-124.71249580383301
10
137.96875
20
-138.71249198913574
10
123.96875381469727
20
-138.71249198913574
10
123.96875381469727
20
-124.71249580383301
0
LWPOLYLINE
5
118
100
AcDbEntity
8
0
100
AcDbPolyline
90
4
70
1
43
0.0
10
173.97500991821289
20
-158.05000305175781
10
187.97500610351562
20
-158.05000305175781
10
187.97500610351562
20
-172.04999923706055
10
173.97500991821289
20
-172.04999923706055
0
LWPOLYLINE
5
119
100
AcDbEntity
8
0
100
AcDbPolyline
90
4
70
1
43
0.0
10
150.16250610351562
20
-124.42500114440918
10
150.16250610351562
20
-110.42499542236328
10
164.16250228881836
20
-110.42499542236328
10
164.16250228881836
20
-124.42500114440918
0
LWPOLYLINE
5
120
100
AcDbEntity
8
0
100
AcDbPolyline
90
4
70
1
43
0.0
10
173.97500991821289
20
-129.18749809265137
10
173.97500991821289
20
-115.1875114440918
10
187.97500610351562
20
-115.1875114440918
10
187.97500610351562
20
-129.18749809265137
0
LWPOLYLINE
5
121
100
AcDbEntity
8
0
100
AcDbPolyline
90
4
70
1
43
0.0
10
65.630745887756348
20
-97.13749885559082
10
65.630745887756348
20
-112.13749885559082
10
58.13075065612793
20
-112.13749885559082
10
58.13075065612793
20
-97.13749885559082
0
LWPOLYLINE
5
122
100
AcDbEntity
8
0
100
AcDbPolyline
90
4
70
1
43
0.0
10
89.506750106811523
20
-97.13749885559082
10
89.506750106811523
20
-112.13749885559082
10
82.006750106811523
20
-112.13749885559082
10
82.006750106811523
20
-97.13749885559082
0
LWPOLYLINE
5
123
100
AcDbEntity
8
0
100
AcDbPolyline
90
36
70
1
43
0.0
10
189.09877777099609
20
-97.341337203979492
10
189.28398132324219
20
-97.291707992553711
10
189.47500228881836
20
-97.274999618530273
10
189.66602325439453
20
-97.291707992553711
10
189.85122680664062
20
-97.341337203979492
10
190.02500534057617
20
-97.422370910644531
10
190.18207550048828
20
-97.5323486328125
10
190.31764984130859
20
-97.667932510375977
10
190.42762756347656
20
-97.825002670288086
10
190.50865173339844
20
-97.998771667480469
10
190.55830001831055
20
-98.183984756469727
10
190.57500839233398
20
-98.375005722045898
10
190.55830001831055
20
-98.566007614135742
10
190.50865173339844
20
-98.751220703125
10
190.42762756347656
20
-98.924999237060547
10
190.31764984130859
20
-99.082059860229492
10
190.18207550048828
20
-99.217643737792969
10
190.02500534057617
20
-99.327630996704102
10
189.85122680664062
20
-99.408664703369141
10
189.66602325439453
20
-99.458284378051758
10
189.47500228881836
20
-99.475002288818359
10
189.28398132324219
20
-99.458284378051758
10
189.09877777099609
20
-99.408664703369141
10
188.92499923706055
20
-99.327630996704102
10
188.76792907714844
20
-99.217643737792969
10
188.63235473632812
20
-99.082059860229492
10
188.52237701416016
20
-98.924999237060547
10
188.44133377075195
20
-98.751220703125
10
188.39170455932617
20
-98.566007614135742
10
188.37501525878906
20
-98.375005722045898
10
188.39170455932617
20
-98.183984756469727
10
188.44133377075195
20
-97.998771667480469
10
188.52237701416016
20
-97.825002670288086
10
188.63235473632812
20
-97.667932510375977
10
188.76792907714844
20
-97.5323486328125
10
188.92499923706055
20
-97.422370910644531
0
LWPOLYLINE
5
124
100
AcDbEntity
8
0
100
AcDbPolyline
90
4
70
1
43
0.0
10
118.91875267028809
20
-110.13750076293945
10
118.91875267028809
20
-96.137495040893555
10
104.91874694824219
20
-96.137495040893555
10
104.91874694824219
20
-110.13750076293945
0
LWPOLYLINE
5
125
100
AcDbEntity
8
0
100
AcDbPolyline
90
4
70
1
43
0.0
10
66.818747520446777
20
-110.13750076293945
10
66.818747520446777
20
-96.137495040893555
10
80.818748474121094
20
-96.137495040893555
10
80.818748474121094
20
-110.13750076293945
0
LWPOLYLINE
5
126
100
AcDbEntity
8
0
100
AcDbPolyline
90
4
70
1
43
0.0
10
169.21249389648438
20
-105.37500381469727
10
169.21249389648438
20
-91.374998092651367
10
183.21249008178711
20
-91.374998092651367
10
183.21249008178711
20
-105.37500381469727
0
LWPOLYLINE
5
127
100
AcDbEntity
8
0
100
AcDbPolyline
90
4
70
1
43
0.0
10
164.16250228881836
20
-105.37500381469727
10
164.16250228881836
20
-91.374998092651367
10
150.16250610351562
20
-91.374998092651367
10
150.16250610351562
20
-105.37500381469727
0
LWPOLYLINE
5
128
100
AcDbEntity
8
0
100
AcDbPolyline
90
4
70
1
43
0.0
10
45.38750171661377
20
-172.04999923706055
10
45.38750171661377
20
-158.05000305175781
10
59.387502670288086
20
-158.05000305175781
10
59.387502670288086
20
-172.04999923706055
0
LWPOLYLINE
5
129
100
AcDbEntity
8
0
100
AcDbPolyline
90
4
70
1
43
0.0
10
145.11250495910645
20
-105.37500381469727
10
145.11250495910645
20
-91.374998092651367
10
131.11250877380371
20
-91.374998092651367
10
131.11250877380371
20
-105.37500381469727
0
LWPOLYLINE
5
130
100
AcDbEntity
8
0
100
AcDbPolyline
90
4
70
1
43
0.0
10
42.718753814697266
20
-110.13750076293945
10
28.718750476837158
20
-110.13750076293945
10
28.718750476837158
20
-96.137495040893555
10
42.718753814697266
20
-96.137495040893555
0
LWPOLYLINE
5
131
100
AcDbEntity
8
0
100
AcDbPolyline
90
4
70
1
43
0.0
10
18.90625
20
-110.13750076293945
10
18.90625
20
-96.137495040893555
10
4.9062499403953552
20
-96.137495040893555
10
4.9062499403953552
20
-110.13750076293945
0
LWPOLYLINE
5
132
100
AcDbEntity
8
0
100
AcDbPolyline
90
4
70
1
43
0.0
10
97.487506866455078
20
-129.18749809265137
10
83.48750114440918
20
-129.18749809265137
10
83.48750114440918
20
-115.1875114440918
10
97.487506866455078
20
-115.1875114440918
0
LWPOLYLINE
5
133
100
AcDbEntity
8
0
100
AcDbPolyline
90
4
70
1
43
0.0
10
21.575000286102295
20
-148.23750495910645
10
21.575000286102295
20
-134.23750877380371
10
35.575001239776611
20
-134.23750877380371
10
35.575001239776611
20
-148.23750495910645
0
LWPOLYLINE
5
134
100
AcDbEntity
8
0
100
AcDbPolyline
90
4
70
1
43
0.0
10
16.525000333786011
20
-148.23750495910645
10
16.525000333786011
20
-134.23750877380371
10
2.525000274181366
20
-134.23750877380371
10
2.525000274181366
20
-148.23750495910645
0
LWPOLYLINE
5
135
100
AcDbEntity
8
0
100
AcDbPolyline
90
320
70
1
43
0.0
10
169.16250228881836
20
-175.55000305175781
10
176.62498474121094
20
-175.55000305175781
10
176.88547134399414
20
-175.57279586791992
10
177.13804244995117
20
-175.64046859741211
10
177.3750114440918
20
-175.75096130371094
10
177.58918762207031
20
-175.90093612670898
10
177.77406692504883
20
-176.0858154296875
10
177.92404174804688
20
-176.30001068115234
10
178.03455352783203
20
-176.53697967529297
10
178.10222625732422
20
-176.78953170776367
10
178.12498092651367
20
-177.04999923706055
10
178.12498092651367
20
-178.05000305175781
10
178.16389083862305
20
-178.51909637451172
10
178.2794189453125
20
-178.97539138793945
10
178.46851348876953
20
-179.40645217895508
10
178.72594833374023
20
-179.80051040649414
10
179.04476165771484
20
-180.14680862426758
10
179.41619873046875
20
-180.43594360351562
10
179.83016967773438
20
-180.65996170043945
10
180.27536392211914
20
-180.81279754638672
10
180.73965072631836
20
-180.89025497436523
10
181.21036529541016
20
-180.89025497436523
10
181.67463302612305
20
-180.81279754638672
10
182.11982727050781
20
-180.65996170043945
10
182.53379821777344
20
-180.43594360351562
10
182.90525436401367
20
-180.14680862426758
10
183.22404861450195
20
-179.80051040649414
10
183.48150253295898
20
-179.40645217895508
10
183.67057800292969
20
-178.97539138793945
10
183.7861442565918
20
-178.51909637451172
10
183.82499694824219
20
-178.05000305175781
10
183.82499694824219
20
-177.04999923706055
10
183.8477897644043
20
-176.78953170776367
10
183.91546249389648
20
-176.53697967529297
10
184.02595520019531
20
-176.30001068115234
10
184.17593002319336
20
-176.0858154296875
10
184.3608283996582
20
-175.90093612670898
10
184.57500457763672
20
-175.75096130371094
10
184.81197357177734
20
-175.64046859741211
10
185.06452560424805
20
-175.57279586791992
10
185.32499313354492
20
-175.55000305175781
10
189.97499465942383
20
-175.55000305175781
10
190.23548126220703
20
-175.5272102355957
10
190.48803329467773
20
-175.45953750610352
10
190.72500228881836
20
-175.34902572631836
10
190.93917846679688
20
-175.19906997680664
10
191.12407684326172
20
-175.0141716003418
10
191.27403259277344
20
-174.80001449584961
10
191.38454437255859
20
-174.56304550170898
10
191.45221710205078
20
-174.31047439575195
10
191.47499084472656
20
-174.05000686645508
10
191.47499084472656
20
-94.137496948242188
10
191.45221710205078
20
-93.877019882202148
10
191.38454437255859
20
-93.624467849731445
10
191.27403259277344
20
-93.38749885559082
10
191.12407684326172
20
-93.173322677612305
10
190.93917846679688
20
-92.988433837890625
10
190.72500228881836
20
-92.838468551635742
10
190.48803329467773
20
-92.727956771850586
10
190.23548126220703
20
-92.660284042358398
10
189.97499465942383
20
-92.637500762939453
10
188.21249008178711
20
-92.637500762939453
10
187.95202255249023
20
-92.61469841003418
10
187.69947052001953
20
-92.547035217285156
10
187.46250152587891
20
-92.436542510986328
10
187.24832534790039
20
-92.286567687988281
10
187.06342697143555
20
-92.101678848266602
10
186.91347122192383
20
-91.887502670288086
10
186.80295944213867
20
-91.650533676147461
10
186.73528671264648
20
-91.397981643676758
10
186.71249389648438
20
-91.137495040893555
10
186.71249389648438
20
-89.375
10
186.68972015380859
20
-89.114522933959961
10
186.62202835083008
20
-88.861970901489258
10
186.51153564453125
20
-88.625001907348633
10
186.36157989501953
20
-88.410816192626953
10
186.17668151855469
20
-88.225927352905273
10
185.96250534057617
20
-88.075962066650391
10
185.72553634643555
20
-87.965459823608398
10
185.47298431396484
20
-87.897787094116211
10
185.21249771118164
20
-87.875003814697266
10
129.11250114440918
20
-87.875003814697266
10
128.85202407836914
20
-87.897787094116211
10
128.59947204589844
20
-87.965459823608398
10
128.36250305175781
20
-88.075962066650391
10
128.14831733703613
20
-88.225927352905273
10
127.96343803405762
20
-88.410816192626953
10
127.81346321105957
20
-88.625001907348633
10
127.70296096801758
20
-88.861970901489258
10
127.63528823852539
20
-89.114522933959961
10
127.61249542236328
20
-89.375
10
127.61249542236328
20
-91.137495040893555
10
127.58971214294434
20
-91.397981643676758
10
127.52203941345215
20
-91.650533676147461
10
127.41153717041016
20
-91.887502670288086
10
127.26157188415527
20
-92.101678848266602
10
127.07668304443359
20
-92.286567687988281
10
126.86249732971191
20
-92.436542510986328
10
126.62552833557129
20
-92.547035217285156
10
126.37297630310059
20
-92.61469841003418
10
126.11249923706055
20
-92.637500762939453
10
99.600000381469727
20
-92.637500762939453
10
99.339523315429688
20
-92.61469841003418
10
99.086971282958984
20
-92.547035217285156
10
98.850002288818359
20
-92.436542510986328
10
98.63581657409668
20
-92.286567687988281
10
98.450937271118164
20
-92.101678848266602
10
98.300962448120117
20
-91.887502670288086
10
98.190460205078125
20
-91.650533676147461
10
98.122787475585938
20
-91.397981643676758
10
98.100004196166992
20
-91.137495040893555
10
98.100004196166992
20
-90.137500762939453
10
98.061132431030273
20
-89.668407440185547
10
97.945585250854492
20
-89.212102890014648
10
97.756500244140625
20
-88.781051635742188
10
97.499046325683594
20
-88.386993408203125
10
97.180261611938477
20
-88.040685653686523
10
96.808805465698242
20
-87.751569747924805
10
96.394834518432617
20
-87.527542114257812
10
95.949630737304688
20
-87.374715805053711
10
95.485353469848633
20
-87.297239303588867
10
95.0146484375
20
-87.297239303588867
10
94.550361633300781
20
-87.374715805053711
10
94.105167388916016
20
-87.527542114257812
10
93.691196441650391
20
-87.751569747924805
10
93.319740295410156
20
-88.040685653686523
10
93.000946044921875
20
-88.386993408203125
10
92.743501663208008
20
-88.781051635742188
10
92.554426193237305
20
-89.212102890014648
10
92.438869476318359
20
-89.668407440185547
10
92.400007247924805
20
-90.137500762939453
10
92.400007247924805
20
-91.137495040893555
10
92.377214431762695
20
-91.397981643676758
10
92.309541702270508
20
-91.650533676147461
10
92.199039459228516
20
-91.887502670288086
10
92.049064636230469
20
-92.101678848266602
10
91.864185333251953
20
-92.286567687988281
10
91.649999618530273
20
-92.436542510986328
10
91.413030624389648
20
-92.547035217285156
10
91.160469055175781
20
-92.61469841003418
10
90.900001525878906
20
-92.637500762939453
10
13.875000476837158
20
-92.637500762939453
10
13.614528179168701
20
-92.61469841003418
10
13.361970186233521
20
-92.547035217285156
10
13.125
20
-92.436542510986328
10
12.910819053649902
20
-92.286567687988281
10
12.725933790206909
20
-92.101678848266602
10
12.575962543487549
20
-91.887502670288086
10
12.465461492538452
20
-91.650533676147461
10
12.397788763046265
20
-91.397981643676758
10
12.375000715255737
20
-91.137495040893555
10
12.375000715255737
20
-90.137500762939453
10
12.336130142211914
20
-89.668407440185547
10
12.220579385757446
20
-89.212102890014648
10
12.031500339508057
20
-88.781051635742188
10
11.774051189422607
20
-88.386993408203125
10
11.45525336265564
20
-88.040685653686523
10
11.083801984786987
20
-87.751569747924805
10
10.669832229614258
20
-87.527542114257812
10
10.22463321685791
20
-87.374715805053711
10
9.7603511810302734
20
-87.297239303588867
10
9.2896491289138794
20
-87.297239303588867
10
8.8253659009933472
20
-87.374715805053711
10
8.380168080329895
20
-87.527542114257812
10
7.9661983251571655
20
-87.751569747924805
10
7.5947469472885132
20
-88.040685653686523
10
7.2759491205215454
20
-88.386993408203125
10
7.0184999704360962
20
-88.781051635742188
10
6.8294209241867065
20
-89.212102890014648
10
6.7138701677322388
20
-89.668407440185547
10
6.6750001907348633
20
-90.137500762939453
10
6.6750001907348633
20
-91.137495040893555
10
6.6522115468978882
20
-91.397981643676758
10
6.5845388174057007
20
-91.650533676147461
10
6.4740383625030518
20
-91.887502670288086
10
6.3240665197372437
20
-92.101678848266602
10
6.1391812562942505
20
-92.286567687988281
10
5.9250003099441528
20
-92.436542510986328
10
5.6880301237106323
20
-92.547035217285156
10
5.4354721307754517
20
-92.61469841003418
10
5.1750004291534424
20
-92.637500762939453
10
0.52499998360872269
20
-92.637500762939453
10
0.26452699676156044
20
-92.660284042358398
10
0.011969000333920121
20
-92.727956771850586
10
-0.22499999031424525
20
-92.838468551635742
10
-0.43918099254369736
20
-92.988433837890625
10
-0.62406599521636963
20
-93.173322677612305
10
-0.77403806149959564
20
-93.38749885559082
10
-0.88453799486160278
20
-93.624467849731445
10
-0.95221102237701416
20
-93.877029418945312
10
-0.9750000387430191
20
-94.137496948242188
10
-0.9750000387430191
20
-174.05000686645508
10
-0.95221102237701416
20
-174.31047439575195
10
-0.88453799486160278
20
-174.56304550170898
10
-0.77403806149959564
20
-174.80001449584961
10
-0.62406599521636963
20
-175.0141716003418
10
-0.43918099254369736
20
-175.19906997680664
10
-0.22499999031424522
20
-175.34902572631836
10
0.011969000333920121
20
-175.45953750610352
10
0.26452699676156044
20
-175.5272102355957
10
0.52499998360872269
20
-175.55000305175781
10
5.1750004291534424
20
-175.55000305175781
10
5.4354721307754517
20
-175.57279586791992
10
5.6880301237106323
20
-175.64046859741211
10
5.9250003099441528
20
-175.75096130371094
10
6.1391812562942505
20
-175.90093612670898
10
6.3240665197372437
20
-176.0858154296875
10
6.4740383625030518
20
-176.30001068115234
10
6.5845388174057007
20
-176.53697967529297
10
6.6522115468978882
20
-176.78953170776367
10
6.6750001907348633
20
-177.04999923706055
10
6.6750001907348633
20
-178.05000305175781
10
6.7138701677322388
20
-178.51909637451172
10
6.8294209241867065
20
-178.97539138793945
10
7.0184999704360962
20
-179.40645217895508
10
7.2759491205215454
20
-179.80051040649414
10
7.5947469472885132
20
-180.14680862426758
10
7.9661983251571655
20
-180.43594360351562
10
8.380168080329895
20
-180.65996170043945
10
8.8253659009933472
20
-180.81279754638672
10
9.2896491289138794
20
-180.89025497436523
10
9.7603511810302734
20
-180.89025497436523
10
10.22463321685791
20
-180.81279754638672
10
10.669832229614258
20
-180.65996170043945
10
11.083801984786987
20
-180.43594360351562
10
11.45525336265564
20
-180.14680862426758
10
11.774051189422607
20
-179.80051040649414
10
12.031500339508057
20
-179.40645217895508
10
12.220579385757446
20
-178.97539138793945
10
12.336130142211914
20
-178.51909637451172
10
12.375000715255737
20
-178.05000305175781
10
12.375000715255737
20
-177.04999923706055
10
12.397788763046265
20
-176.78953170776367
10
12.465461492538452
20
-176.53697967529297
10
12.575962543487549
20
-176.30001068115234
10
12.725933790206909
20
-176.0858154296875
10
12.910819053649902
20
-175.90093612670898
10
13.125
20
-175.75096130371094
10
13.361970186233521
20
-175.64046859741211
10
13.614528179168701
20
-175.57279586791992
10
13.875000476837158
20
-175.55000305175781
10
90.900001525878906
20
-175.55000305175781
10
91.160469055175781
20
-175.57279586791992
10
91.413030624389648
20
-175.64046859741211
10
91.649999618530273
20
-175.75096130371094
10
91.864185333251953
20
-175.90093612670898
10
92.049064636230469
20
-176.0858154296875
10
92.199039459228516
20
-176.30001068115234
10
92.309541702270508
20
-176.53697967529297
10
92.377214431762695
20
-176.78953170776367
10
92.400007247924805
20
-177.04999923706055
10
92.400007247924805
20
-178.05000305175781
10
92.438869476318359
20
-178.51909637451172
10
92.554426193237305
20
-178.97539138793945
10
92.743501663208008
20
-179.40645217895508
10
93.000946044921875
20
-179.80051040649414
10
93.319740295410156
20
-180.14680862426758
10
93.691196441650391
20
-180.43594360351562
10
94.105167388916016
20
-180.65996170043945
10
94.550361633300781
20
-180.81279754638672
10
95.0146484375
20
-180.89025497436523
10
95.485353469848633
20
-180.89025497436523
10
95.949630737304688
20
-180.81279754638672
10
96.394834518432617
20
-180.65996170043945
10
96.808805465698242
20
-180.43594360351562
10
97.180261611938477
20
-180.14680862426758
10
97.499046325683594
20
-179.80051040649414
10
97.756500244140625
20
-179.40645217895508
10
97.945585250854492
20
-178.97539138793945
10
98.061132431030273
20
-178.51909637451172
10
98.100004196166992
20
-178.05000305175781
10
98.100004196166992
20
-177.04999923706055
10
98.122787475585938
20
-176.78953170776367
10
98.190460205078125
20
-176.53697967529297
10
98.300962448120117
20
-176.30001068115234
10
98.450937271118164
20
-176.0858154296875
10
98.63581657409668
20
-175.90093612670898
10
98.850002288818359
20
-175.75096130371094
10
99.086971282958984
20
-175.64046859741211
10
99.339523315429688
20
-175.57279586791992
10
99.600000381469727
20
-175.55000305175781
10
145.16249656677246
20
-175.55000305175781
10
145.4229736328125
20
-175.5272102355957
10
145.6755256652832
20
-175.45953750610352
10
145.91249465942383
20
-175.34902572631836
10
146.12668037414551
20
-175.19906997680664
10
146.31156921386719
20
-175.0141716003418
10
146.46153450012207
20
-174.80001449584961
10
146.57203674316406
20
-174.56304550170898
10
146.63970947265625
20
-174.31047439575195
10
146.6624927520752
20
-174.05000686645508
10
146.6624927520752
20
-130.33125877380371
10
146.67769432067871
20
-130.15759468078613
10
146.72281265258789
20
-129.98923301696777
10
146.79648399353027
20
-129.83125686645508
10
146.89645767211914
20
-129.68846321105957
10
147.01972007751465
20
-129.56520080566406
10
147.16249465942383
20
-129.4652271270752
10
147.32048034667969
20
-129.39155578613281
10
147.48885154724121
20
-129.34643745422363
10
147.66249656677246
20
-129.33125495910645
10
166.66250228881836
20
-129.33125495910645
10
166.83614730834961
20
-129.34643745422363
10
167.0045280456543
20
-129.39155578613281
10
167.16249465942383
20
-129.4652271270752
10
167.30527877807617
20
-129.56520080566406
10
167.42855072021484
20
-129.68846321105957
10
167.52851486206055
20
-129.83125686645508
10
167.60219573974609
20
-129.98923301696777
10
167.64730453491211
20
-130.15759468078613
10
167.6624870300293
20
-130.33125877380371
10
167.6624870300293
20
-174.05000686645508
10
167.68529891967773
20
-174.31047439575195
10
167.75297164916992
20
-174.56304550170898
10
167.86348342895508
20
-174.80001449584961
10
168.0134391784668
20
-175.0141716003418
10
168.19831848144531
20
-175.19906997680664
10
168.41249465942383
20
-175.34902572631836
10
168.64946365356445
20
-175.45953750610352
10
168.90203475952148
20
-175.5272102355957
0
LWPOLYLINE
5
136
100
AcDbEntity
8
0
100
AcDbPolyline
90
36
70
1
43
0.0
10
180.78397750854492
20
-176.96670532226562
10
180.97501754760742
20
-176.94999694824219
10
181.16601943969727
20
-176.96670532226562
10
181.35122299194336
20
-177.01635360717773
10
181.52500152587891
20
-177.09737777709961
10
181.68207168579102
20
-177.20733642578125
10
181.81764602661133
20
-177.34292984008789
10
181.9276237487793
20
-177.5
10
182.0086669921875
20
-177.67377853393555
10
182.05829620361328
20
-177.85898208618164
10
182.07500457763672
20
-178.05000305175781
10
182.05829620361328
20
-178.24102401733398
10
182.0086669921875
20
-178.42622756958008
10
181.9276237487793
20
-178.5999870300293
10
181.81764602661133
20
-178.75707626342773
10
181.68207168579102
20
-178.89265060424805
10
181.52500152587891
20
-179.00262832641602
10
181.35122299194336
20
-179.08367156982422
10
181.16601943969727
20
-179.13328170776367
10
180.97501754760742
20
-179.14999008178711
10
180.78397750854492
20
-179.13328170776367
10
180.59879302978516
20
-179.08367156982422
10
180.42501449584961
20
-179.00262832641602
10
180.26792526245117
20
-178.89265060424805
10
180.13235092163086
20
-178.75707626342773
10
180.02237319946289
20
-178.5999870300293
10
179.94134902954102
20
-178.42622756958008
10
179.89171981811523
20
-178.24102401733398
10
179.8750114440918
20
-178.05000305175781
10
179.89171981811523
20
-177.85898208618164
10
179.94134902954102
20
-177.67377853393555
10
180.02237319946289
20
-177.5
10
180.13235092163086
20
-177.34292984008789
10
180.26792526245117
20
-177.20733642578125
10
180.42501449584961
20
-177.09737777709961
10
180.59879302978516
20
-177.01635360717773
0
LWPOLYLINE
5
137
100
AcDbEntity
8
0
100
AcDbPolyline
90
36
70
1
43
0.0
10
95.441007614135742
20
-91.220788955688477
10
95.250005722045898
20
-91.237497329711914
10
95.058984756469727
20
-91.220788955688477
10
94.873781204223633
20
-91.171159744262695
10
94.700002670288086
20
-91.090126037597656
10
94.542932510375977
20
-90.980148315429688
10
94.4073486328125
20
-90.844564437866211
10
94.297370910644531
20
-90.68751335144043
10
94.216337203979492
20
-90.513715744018555
10
94.166707992553711
20
-90.328512191772461
10
94.149999618530273
20
-90.137500762939453
10
94.166707992553711
20
-89.946489334106445
10
94.216337203979492
20
-89.761276245117188
10
94.297370910644531
20
-89.587507247924805
10
94.4073486328125
20
-89.430437088012695
10
94.542932510375977
20
-89.294853210449219
10
94.700002670288086
20
-89.184865951538086
10
94.873781204223633
20
-89.103841781616211
10
95.058984756469727
20
-89.05421257019043
10
95.250005722045898
20
-89.037504196166992
10
95.441007614135742
20
-89.05421257019043
10
95.626220703125
20
-89.103841781616211
10
95.799999237060547
20
-89.184865951538086
10
95.957059860229492
20
-89.294853210449219
10
96.092643737792969
20
-89.430437088012695
10
96.202630996704102
20
-89.587507247924805
10
96.283664703369141
20
-89.761276245117188
10
96.333293914794922
20
-89.946489334106445
10
96.350002288818359
20
-90.137500762939453
10
96.333293914794922
20
-90.328512191772461
10
96.283664703369141
20
-90.513715744018555
10
96.202630996704102
20
-90.68751335144043
10
96.092643737792969
20
-90.844564437866211
10
95.957059860229492
20
-90.980148315429688
10
95.799999237060547
20
-91.090126037597656
10
95.626220703125
20
-91.171159744262695
0
LWPOLYLINE
5
138
100
AcDbEntity
8
0
100
AcDbPolyline
90
36
70
1
43
0.0
10
9.7160130739212036
20
-91.220788955688477
10
9.5249998569488525
20
-91.237497329711914
10
9.3339872360229492
20
-91.220788955688477
10
9.1487783193588257
20
-91.171159744262695
10
8.9750003814697266
20
-91.090126037597656
10
8.8179343938827515
20
-90.980148315429688
10
8.6823511123657227
20
-90.844564437866211
10
8.5723727941513062
20
-90.68751335144043
10
8.4913378953933716
20
-90.513715744018555
10
8.4417116641998291
20
-90.328512191772461
10
8.4250003099441528
20
-90.137500762939453
10
8.4417116641998291
20
-89.946489334106445
10
8.4913378953933716
20
-89.761276245117188
10
8.5723727941513062
20
-89.587507247924805
10
8.6823511123657227
20
-89.430437088012695
10
8.8179343938827515
20
-89.294853210449219
10
8.9750003814697266
20
-89.184865951538086
10
9.1487783193588257
20
-89.103841781616211
10
9.3339872360229492
20
-89.05421257019043
10
9.5249998569488525
20
-89.037504196166992
10
9.7160130739212036
20
-89.05421257019043
10
9.9012225866317749
20
-89.103841781616211
10
10.075000524520874
20
-89.184865951538086
10
10.232065916061401
20
-89.294853210449219
10
10.367649793624878
20
-89.430437088012695
10
10.477627515792847
20
-89.587507247924805
10
10.558661222457886
20
-89.761276245117188
10
10.608289241790771
20
-89.946489334106445
10
10.625
20
-90.137500762939453
10
10.608289241790771
20
-90.328512191772461
10
10.558661222457886
20
-90.513715744018555
10
10.477627515792847
20
-90.68751335144043
10
10.367649793624878
20
-90.844564437866211
10
10.232065916061401
20
-90.980148315429688
10
10.075000524520874
20
-91.090126037597656
10
9.9012225866317749
20
-91.171159744262695
0
LWPOLYLINE
5
139
100
AcDbEntity
8
0
100
AcDbPolyline
90
36
70
1
43
0.0
10
9.3339872360229492
20
-176.96670532226562
10
9.5249998569488525
20
-176.94999694824219
10
9.7160130739212036
20
-176.96670532226562
10
9.9012225866317749
20
-177.01635360717773
10
10.075000524520874
20
-177.09737777709961
10
10.232065916061401
20
-177.20733642578125
10
10.367649793624878
20
-177.34292984008789
10
10.477627515792847
20
-177.5
10
10.558661222457886
20
-177.67377853393555
10
10.608289241790771
20
-177.85898208618164
10
10.625
20
-178.05000305175781
10
10.608289241790771
20
-178.24102401733398
10
10.558661222457886
20
-178.42622756958008
10
10.477627515792847
20
-178.5999870300293
10
10.367649793624878
20
-178.75707626342773
10
10.232065916061401
20
-178.89265060424805
10
10.075000524520874
20
-179.00262832641602
10
9.9012225866317749
20
-179.08367156982422
10
9.7160130739212036
20
-179.13328170776367
10
9.5249998569488525
20
-179.14999008178711
10
9.3339872360229492
20
-179.13328170776367
10
9.1487783193588257
20
-179.08367156982422
10
8.9750003814697266
20
-179.00262832641602
10
8.8179343938827515
20
-178.89265060424805
10
8.6823511123657227
20
-178.75707626342773
10
8.5723727941513062
20
-178.5999870300293
10
8.4913378953933716
20
-178.42622756958008
10
8.4417116641998291
20
-178.24102401733398
10
8.4250003099441528
20
-178.05000305175781
10
8.4417116641998291
20
-177.85898208618164
10
8.4913378953933716
20
-177.67377853393555
10
8.5723727941513062
20
-177.5
10
8.6823511123657227
20
-177.34292984008789
10
8.8179343938827515
20
-177.20733642578125
10
8.9750003814697266
20
-177.09737777709961
10
9.1487783193588257
20
-177.01635360717773
0
LWPOLYLINE
5
140
100
AcDbEntity
8
0
100
AcDbPolyline
90
4
70
1
43
0.0
10
88.249998092651367
20
-172.04999923706055
10
88.249998092651367
20
-158.05000305175781
10
102.25000381469727
20
-158.05000305175781
10
102.25000381469727
20
-172.04999923706055
0
LWPOLYLINE
5
141
100
AcDbEntity
8
0
100
AcDbPolyline
90
36
70
1
43
0.0
10
95.058984756469727
20
-176.96670532226562
10
95.250005722045898
20
-176.94999694824219
10
95.441007614135742
20
-176.96670532226562
10
95.626220703125
20
-177.01635360717773
10
95.799999237060547
20
-177.09737777709961
10
95.957059860229492
20
-177.20733642578125
10
96.092643737792969
20
-177.34292984008789
10
96.202630996704102
20
-177.5
10
96.283664703369141
20
-177.67377853393555
10
96.333293914794922
20
-177.85898208618164
10
96.350002288818359
20
-178.05000305175781
10
96.333293914794922
20
-178.24102401733398
10
96.283664703369141
20
-178.42622756958008
10
96.202630996704102
20
-178.5999870300293
10
96.092643737792969
20
-178.75707626342773
10
95.957059860229492
20
-178.89265060424805
10
95.799999237060547
20
-179.00262832641602
10
95.626220703125
20
-179.08367156982422
10
95.441007614135742
20
-179.13328170776367
10
95.250005722045898
20
-179.14999008178711
10
95.058984756469727
20
-179.13328170776367
10
94.873781204223633
20
-179.08367156982422
10
94.700002670288086
20
-179.00262832641602
10
94.542932510375977
20
-178.89265060424805
10
94.4073486328125
20
-178.75707626342773
10
94.297370910644531
20
-178.5999870300293
10
94.216337203979492
20
-178.42622756958008
10
94.166707992553711
20
-178.24102401733398
10
94.149999618530273
20
-178.05000305175781
10
94.166707992553711
20
-177.85898208618164
10
94.216337203979492
20
-177.67377853393555
10
94.297370910644531
20
-177.5
10
94.4073486328125
20
-177.34292984008789
10
94.542932510375977
20
-177.20733642578125
10
94.700002670288086
20
-177.09737777709961
10
94.873781204223633
20
-177.01635360717773
0
ENDSEC
0
SECTION
2
OBJECTS
0
DICTIONARY
5
C
100
AcDbDictionary
3
ACAD_GROUP
350
D
3
ACAD_MLINESTYLE
350
17
0
DICTIONARY
5
D
100
AcDbDictionary
0
DICTIONARY
5
1A
330
C
100
AcDbDictionary
0
DICTIONARY
5
17
100
AcDbDictionary
0
ENDSEC
0
EOF
